# xmcd CD database file
#
# Track frame offsets:
#	150
#	19380
#	37027
#	53634
#	66429
#	83804
#	96548
#	119725
#	137234
#	152269
#	167859
#	177163
#	190267
#	204812
#
# Disc length: 3018 seconds
#
# Revision: 0
# Processed by: cddbd v1.5.2PL0 Copyright (c) Steve Scherf et al.
# Submitted via: CDex 1.70beta2
#
DISCID=c50bc80e
DTITLE=Petr Linhart - Autobus do Podobran
DYEAR=2010
DGENRE=Country
TTITLE0=Autobus do Podboran
TTITLE1=Poloha D
TTITLE2=Crowna
TTITLE3=Tovarna
TTITLE4=Helga Braun
TTITLE5=Mesic se nasyti tmou
TTITLE6=Annenruhe
TTITLE7=Kapucinka
TTITLE8=Silvestr
TTITLE9=Marie Lowy
TTITLE10=Zatopene doly
TTITLE11=Hello Rosemary
TTITLE12=Holub and Fric
TTITLE13=Prichazeji nad ranem
EXTD=YEAR: 2010
EXTT0=
EXTT1=
EXTT2=
EXTT3=
EXTT4=
EXTT5=
EXTT6=
EXTT7=
EXTT8=
EXTT9=
EXTT10=
EXTT11=
EXTT12=
EXTT13=
PLAYORDER=
